<svg width="42" height="42" viewBox="0 0 42 42" fill="none" xmlns="http://www.w3.org/2000/svg">
<rect width="42" height="42" rx="12" fill="#DBF5F0"/>
<g clip-path="url(#clip0_383_7405)">
<path d="M26.25 17.4999H25.375V15.7499C25.375 13.3349 23.415 11.3749 21 11.3749C18.585 11.3749 16.625 13.3349 16.625 15.7499V17.4999H15.75C14.7875 17.4999 14 18.2874 14 19.2499V27.9999C14 28.9624 14.7875 29.7499 15.75 29.7499H26.25C27.2125 29.7499 28 28.9624 28 27.9999V19.2499C28 18.2874 27.2125 17.4999 26.25 17.4999ZM18.375 15.7499C18.375 14.2974 19.5475 13.1249 21 13.1249C22.4525 13.1249 23.625 14.2974 23.625 15.7499V17.4999H18.375V15.7499ZM26.25 27.9999H15.75V19.2499H26.25V27.9999ZM21 25.3749C21.9625 25.3749 22.75 24.5874 22.75 23.6249C22.75 22.6624 21.9625 21.8749 21 21.8749C20.0375 21.8749 19.25 22.6624 19.25 23.6249C19.25 24.5874 20.0375 25.3749 21 25.3749Z" fill="#009572"/>
</g>
<defs>
<clipPath id="clip0_383_7405">
<rect width="21" height="21" fill="white" transform="translate(10.5 10.5)"/>
</clipPath>
</defs>
</svg>
