<svg width="42" height="42" viewBox="0 0 42 42" fill="none" xmlns="http://www.w3.org/2000/svg">
<rect width="42" height="42" rx="12" fill="#E4F0F8"/>
<g clip-path="url(#clip0_383_6893)">
<path d="M27.5015 21.8576C27.5365 21.5776 27.5627 21.2976 27.5627 21.0001C27.5627 20.7026 27.5365 20.4226 27.5015 20.1426L29.3477 18.6988C29.514 18.5676 29.5577 18.3313 29.4527 18.1388L27.7027 15.1113C27.624 14.9713 27.4752 14.8926 27.3177 14.8926C27.2652 14.8926 27.2127 14.9013 27.169 14.9188L24.9902 15.7938C24.5352 15.4438 24.0452 15.1551 23.5115 14.9363L23.179 12.6176C23.1527 12.4076 22.969 12.2501 22.7502 12.2501H19.2502C19.0315 12.2501 18.8477 12.4076 18.8215 12.6176L18.489 14.9363C17.9552 15.1551 17.4652 15.4526 17.0102 15.7938L14.8315 14.9188C14.779 14.9013 14.7265 14.8926 14.674 14.8926C14.5252 14.8926 14.3765 14.9713 14.2977 15.1113L12.5477 18.1388C12.434 18.3313 12.4865 18.5676 12.6527 18.6988L14.499 20.1426C14.464 20.4226 14.4377 20.7113 14.4377 21.0001C14.4377 21.2888 14.464 21.5776 14.499 21.8576L12.6527 23.3013C12.4865 23.4326 12.4427 23.6688 12.5477 23.8613L14.2977 26.8888C14.3765 27.0288 14.5252 27.1076 14.6827 27.1076C14.7352 27.1076 14.7877 27.0988 14.8315 27.0813L17.0102 26.2063C17.4652 26.5563 17.9552 26.8451 18.489 27.0638L18.8215 29.3826C18.8477 29.5926 19.0315 29.7501 19.2502 29.7501H22.7502C22.969 29.7501 23.1527 29.5926 23.179 29.3826L23.5115 27.0638C24.0452 26.8451 24.5352 26.5476 24.9902 26.2063L27.169 27.0813C27.2215 27.0988 27.274 27.1076 27.3265 27.1076C27.4752 27.1076 27.624 27.0288 27.7027 26.8888L29.4527 23.8613C29.5577 23.6688 29.514 23.4326 29.3477 23.3013L27.5015 21.8576ZM25.769 20.3613C25.804 20.6326 25.8127 20.8163 25.8127 21.0001C25.8127 21.1838 25.7952 21.3763 25.769 21.6388L25.6465 22.6276L26.4252 23.2401L27.3702 23.9751L26.7577 25.0338L25.6465 24.5876L24.7365 24.2201L23.949 24.8151C23.5727 25.0951 23.214 25.3051 22.8552 25.4538L21.9277 25.8301L21.7877 26.8188L21.6127 28.0001H20.3877L20.2215 26.8188L20.0815 25.8301L19.154 25.4538C18.7777 25.2963 18.4277 25.0951 18.0777 24.8326L17.2815 24.2201L16.354 24.5963L15.2427 25.0426L14.6302 23.9838L15.5752 23.2488L16.354 22.6363L16.2315 21.6476C16.2052 21.3763 16.1877 21.1751 16.1877 21.0001C16.1877 20.8251 16.2052 20.6238 16.2315 20.3613L16.354 19.3726L15.5752 18.7601L14.6302 18.0251L15.2427 16.9663L16.354 17.4126L17.264 17.7801L18.0515 17.1851C18.4277 16.9051 18.7865 16.6951 19.1452 16.5463L20.0727 16.1701L20.2127 15.1813L20.3877 14.0001H21.604L21.7702 15.1813L21.9102 16.1701L22.8377 16.5463C23.214 16.7038 23.564 16.9051 23.914 17.1676L24.7102 17.7801L25.6377 17.4038L26.749 16.9576L27.3615 18.0163L26.4252 18.7601L25.6465 19.3726L25.769 20.3613ZM21.0002 17.5001C19.0665 17.5001 17.5002 19.0663 17.5002 21.0001C17.5002 22.9338 19.0665 24.5001 21.0002 24.5001C22.934 24.5001 24.5002 22.9338 24.5002 21.0001C24.5002 19.0663 22.934 17.5001 21.0002 17.5001ZM21.0002 22.7501C20.0377 22.7501 19.2502 21.9626 19.2502 21.0001C19.2502 20.0376 20.0377 19.2501 21.0002 19.2501C21.9627 19.2501 22.7502 20.0376 22.7502 21.0001C22.7502 21.9626 21.9627 22.7501 21.0002 22.7501Z" fill="#427DBF"/>
</g>
<defs>
<clipPath id="clip0_383_6893">
<rect width="21" height="21" fill="white" transform="translate(10.5 10.5)"/>
</clipPath>
</defs>
</svg>
