<svg width="42" height="42" viewBox="0 0 42 42" fill="none" xmlns="http://www.w3.org/2000/svg">
<rect width="42" height="42" rx="12" fill="#FDF2E1"/>
<g clip-path="url(#clip0_383_7382)">
<path d="M21 16.7999C24.3162 16.7999 27.2737 18.6636 28.7175 21.6124C27.2737 24.5611 24.3162 26.4249 21 26.4249C17.6838 26.4249 14.7262 24.5611 13.2825 21.6124C14.7262 18.6636 17.6838 16.7999 21 16.7999ZM21 15.0499C16.625 15.0499 12.8888 17.7711 11.375 21.6124C12.8888 25.4536 16.625 28.1749 21 28.1749C25.375 28.1749 29.1112 25.4536 30.625 21.6124C29.1112 17.7711 25.375 15.0499 21 15.0499ZM21 19.4249C22.2075 19.4249 23.1875 20.4049 23.1875 21.6124C23.1875 22.8199 22.2075 23.7999 21 23.7999C19.7925 23.7999 18.8125 22.8199 18.8125 21.6124C18.8125 20.4049 19.7925 19.4249 21 19.4249ZM21 17.6749C18.83 17.6749 17.0625 19.4424 17.0625 21.6124C17.0625 23.7824 18.83 25.5499 21 25.5499C23.17 25.5499 24.9375 23.7824 24.9375 21.6124C24.9375 19.4424 23.17 17.6749 21 17.6749Z" fill="#EB8926"/>
</g>
<defs>
<clipPath id="clip0_383_7382">
<rect width="21" height="21" fill="white" transform="translate(10.5 11.55)"/>
</clipPath>
</defs>
</svg>
