<svg width="24" height="24" viewBox="0 0 24 24" fill="none" xmlns="http://www.w3.org/2000/svg">
<rect width="24" height="24" rx="6" fill="#E4F0F8"/>
<g clip-path="url(#clip0_650_15931)">
<path d="M17.25 9H16.5V5.25H7.5V9H6.75C5.505 9 4.5 10.005 4.5 11.25V15.75H7.5V18.75H16.5V15.75H19.5V11.25C19.5 10.005 18.495 9 17.25 9ZM9 6.75H15V9H9V6.75ZM15 15.75V17.25H9V14.25H15V15.75ZM16.5 14.25V12.75H7.5V14.25H6V11.25C6 10.8375 6.3375 10.5 6.75 10.5H17.25C17.6625 10.5 18 10.8375 18 11.25V14.25H16.5Z" fill="#427DBF"/>
<path d="M16.5 12.375C16.9142 12.375 17.25 12.0392 17.25 11.625C17.25 11.2108 16.9142 10.875 16.5 10.875C16.0858 10.875 15.75 11.2108 15.75 11.625C15.75 12.0392 16.0858 12.375 16.5 12.375Z" fill="#427DBF"/>
</g>
<defs>
<clipPath id="clip0_650_15931">
<rect width="18" height="18" fill="white" transform="translate(3 3)"/>
</clipPath>
</defs>
</svg>
