<svg width="171" height="29" viewBox="0 0 171 29" fill="none" xmlns="http://www.w3.org/2000/svg">
<path d="M43.9998 0.457764H36.2909L26.8447 27.5577H34.574L43.9998 0.457764Z" fill="white"/>
<path d="M14.1839 28.0594C6.35081 28.0594 0 21.7781 0 14.0308C0 6.2813 6.35081 0 14.1839 0C22.0169 0 28.3677 6.2813 28.3677 14.0308C28.3677 21.7781 22.0169 28.0594 14.1839 28.0594ZM21.3266 14.0152C21.3266 10.1393 18.15 6.99534 14.229 6.99534C10.3079 6.99534 7.13367 10.1393 7.13367 14.0152C7.13367 17.8911 10.3102 21.0351 14.2312 21.0351C18.1523 21.0351 21.3266 17.8911 21.3266 14.0152Z" fill="white"/>
<path d="M53.3531 11.1889V6.70915H57.8795V5.32614H53.3531V1.89866H58.3441V0.530672H51.8843V11.1889H53.3531Z" fill="white"/>
<path d="M61.5559 11.1889V3.95815H60.162V11.1889H61.5559ZM59.8472 1.22218C59.8472 1.77839 60.2969 2.22938 60.8514 2.22938C61.421 2.22938 61.8706 1.77839 61.8706 1.22218C61.8706 0.650935 61.421 0.199951 60.8514 0.199951C60.2969 0.199951 59.8472 0.650935 59.8472 1.22218Z" fill="white"/>
<path d="M65.2447 7.00981C65.2447 5.91241 65.8142 5.02548 66.9233 5.02548C68.1823 5.02548 68.602 5.83725 68.602 6.84445V11.1889H70.0109V6.60392C70.0109 4.99541 69.1565 3.74769 67.4329 3.74769C66.5936 3.74769 65.7393 4.09345 65.2147 4.99541V3.95815H63.8358V11.1889H65.2447V7.00981Z" fill="white"/>
<path d="M71.7284 9.2497C71.7284 10.3922 72.6726 11.4144 74.1414 11.4144C75.4304 11.4144 76.1498 10.7229 76.4646 10.2118C76.4646 10.7379 76.5095 11.0085 76.5395 11.1889H77.9184C77.8884 11.0085 77.8285 10.6327 77.8285 10.0013V6.37843C77.8285 4.96535 76.9892 3.73266 74.8309 3.73266C73.2721 3.73266 72.0281 4.69476 71.8783 6.07778L73.2272 6.39346C73.3171 5.55163 73.8717 4.93528 74.8609 4.93528C75.955 4.93528 76.4196 5.52156 76.4196 6.2281C76.4196 6.48366 76.2997 6.70915 75.8651 6.76928L73.9166 7.05491C72.6726 7.2353 71.7284 7.95688 71.7284 9.2497ZM74.3363 10.2268C73.6169 10.2268 73.1672 9.71571 73.1672 9.17453C73.1672 8.52812 73.6169 8.18237 74.2164 8.09217L76.4196 7.76145V8.09217C76.4196 9.67061 75.4904 10.2268 74.3363 10.2268Z" fill="white"/>
<path d="M81.4621 7.00981C81.4621 5.91241 82.0317 5.02548 83.1408 5.02548C84.3998 5.02548 84.8194 5.83725 84.8194 6.84445V11.1889H86.2283V6.60392C86.2283 4.99541 85.374 3.74769 83.6504 3.74769C82.8111 3.74769 81.9567 4.09345 81.4322 4.99541V3.95815H80.0533V11.1889H81.4621V7.00981Z" fill="white"/>
<path d="M91.5729 5.04051C92.802 5.04051 93.3265 5.86732 93.5064 6.57386L94.7804 6.03268C94.4806 4.93528 93.4914 3.73266 91.5729 3.73266C89.5196 3.73266 87.9458 5.3111 87.9458 7.56602C87.9458 9.76081 89.4896 11.4144 91.5879 11.4144C93.4614 11.4144 94.4956 10.1968 94.8403 9.1595L93.5963 8.61832C93.4314 9.18956 92.9368 10.1066 91.5879 10.1066C90.4189 10.1066 89.3847 9.21963 89.3847 7.56602C89.3847 5.88235 90.4339 5.04051 91.5729 5.04051Z" fill="white"/>
<path d="M97.8988 11.1889V3.95815H96.5049V11.1889H97.8988ZM96.1902 1.22218C96.1902 1.77839 96.6398 2.22938 97.1944 2.22938C97.7639 2.22938 98.2136 1.77839 98.2136 1.22218C98.2136 0.650935 97.7639 0.199951 97.1944 0.199951C96.6398 0.199951 96.1902 0.650935 96.1902 1.22218Z" fill="white"/>
<path d="M99.6991 9.2497C99.6991 10.3922 100.643 11.4144 102.112 11.4144C103.401 11.4144 104.121 10.7229 104.435 10.2118C104.435 10.7379 104.48 11.0085 104.51 11.1889H105.889C105.859 11.0085 105.799 10.6327 105.799 10.0013V6.37843C105.799 4.96535 104.96 3.73266 102.802 3.73266C101.243 3.73266 99.9989 4.69476 99.849 6.07778L101.198 6.39346C101.288 5.55163 101.842 4.93528 102.832 4.93528C103.926 4.93528 104.39 5.52156 104.39 6.2281C104.39 6.48366 104.27 6.70915 103.836 6.76928L101.887 7.05491C100.643 7.2353 99.6991 7.95688 99.6991 9.2497ZM102.307 10.2268C101.588 10.2268 101.138 9.71571 101.138 9.17453C101.138 8.52812 101.588 8.18237 102.187 8.09217L104.39 7.76145V8.09217C104.39 9.67061 103.461 10.2268 102.307 10.2268Z" fill="white"/>
<path d="M109.433 11.1889V0.30518H108.024V11.1889H109.433Z" fill="white"/>
<path d="M58.5539 19.2365C58.3141 18.079 57.3549 16.5907 54.9568 16.5907C52.9934 16.5907 51.4496 18.094 51.4496 19.7626C51.4496 21.3561 52.5288 22.3483 54.0426 22.679L55.5563 23.0097C56.6205 23.2352 57.1451 23.8967 57.1451 24.6633C57.1451 25.5954 56.4257 26.362 54.9568 26.362C53.3531 26.362 52.5138 25.2646 52.4089 24.077L51 24.528C51.1948 26.0463 52.4089 27.7 54.9718 27.7C57.235 27.7 58.6439 26.1967 58.6439 24.5431C58.6439 23.0548 57.6547 21.9424 55.8861 21.5515L54.2974 21.2058C53.3981 21.0104 52.9334 20.4241 52.9334 19.6574C52.9334 18.6652 53.7878 17.8835 54.9868 17.8835C56.4706 17.8835 57.1151 18.9358 57.235 19.7025L58.5539 19.2365Z" fill="white"/>
<path d="M62.2718 17.9587H60.9828V19.1313C60.9828 19.7626 60.6531 20.2437 59.8737 20.2437H59.484V21.5215H60.8629V25.4901C60.8629 26.798 61.6423 27.5496 62.8713 27.5496C63.3509 27.5496 63.7106 27.4594 63.8305 27.4143V26.2117C63.7106 26.2418 63.4558 26.2718 63.276 26.2718C62.5416 26.2718 62.2718 25.9411 62.2718 25.2797V21.5215H63.8305V20.2437H62.2718V17.9587Z" fill="white"/>
<path d="M65.0248 25.5352C65.0248 26.6777 65.969 27.7 67.4378 27.7C68.7268 27.7 69.4462 27.0084 69.761 26.4973C69.761 27.0235 69.8059 27.2941 69.8359 27.4745H71.2148C71.1848 27.2941 71.1249 26.9182 71.1249 26.2869V22.664C71.1249 21.2509 70.2856 20.0182 68.1273 20.0182C66.5685 20.0182 65.3245 20.9803 65.1746 22.3633L66.5236 22.679C66.6135 21.8372 67.1681 21.2208 68.1573 21.2208C69.2514 21.2208 69.716 21.8071 69.716 22.5136C69.716 22.7692 69.5961 22.9947 69.1615 23.0548L67.213 23.3404C65.969 23.5208 65.0248 24.2424 65.0248 25.5352ZM67.6327 26.5124C66.9133 26.5124 66.4636 26.0012 66.4636 25.4601C66.4636 24.8137 66.9133 24.4679 67.5128 24.3777L69.716 24.047V24.3777C69.716 25.9561 68.7868 26.5124 67.6327 26.5124Z" fill="white"/>
<path d="M75.2545 17.9587H73.9656V19.1313C73.9656 19.7626 73.6358 20.2437 72.8565 20.2437H72.4668V21.5215H73.8457V25.4901C73.8457 26.798 74.625 27.5496 75.8541 27.5496C76.3337 27.5496 76.6934 27.4594 76.8133 27.4143V26.2117C76.6934 26.2418 76.4386 26.2718 76.2587 26.2718C75.5243 26.2718 75.2545 25.9411 75.2545 25.2797V21.5215H76.8133V20.2437H75.2545V17.9587Z" fill="white"/>
<path d="M79.4478 23.1149C79.5077 22.1829 80.2272 21.2659 81.4112 21.2659C82.6852 21.2659 83.3596 22.0777 83.3896 23.1149H79.4478ZM83.5994 24.994C83.3297 25.8058 82.7451 26.4522 81.5761 26.4522C80.362 26.4522 79.4328 25.5503 79.4028 24.2574H84.8285C84.8434 24.1672 84.8584 23.9868 84.8584 23.8065C84.8584 21.5515 83.6144 20.0182 81.3962 20.0182C79.5827 20.0182 77.949 21.5666 77.949 23.8365C77.949 26.2869 79.6426 27.7 81.5761 27.7C83.2547 27.7 84.4088 26.6928 84.8135 25.415L83.5994 24.994Z" fill="white"/>
<path d="M88.019 27.4745V23.1149C88.019 22.0326 88.6935 21.2809 89.6977 21.2809C90.7768 21.2809 91.2265 22.0025 91.2265 22.9346V27.4745H92.6353V23.0999C92.6353 22.0626 93.3098 21.2809 94.299 21.2809C95.3631 21.2809 95.8278 21.9875 95.8278 22.9346V27.4745H97.2216V22.7842C97.2216 20.8901 95.9926 20.0332 94.7336 20.0332C93.8194 20.0332 92.8901 20.3639 92.3206 21.4012C91.9309 20.4692 91.0616 20.0332 90.1623 20.0332C89.323 20.0332 88.4237 20.409 87.9741 21.2058V20.2437H86.6251V27.4745H88.019Z" fill="white"/>
<path d="M100.437 23.1149C100.497 22.1829 101.216 21.2659 102.4 21.2659C103.674 21.2659 104.349 22.0777 104.379 23.1149H100.437ZM104.588 24.994C104.319 25.8058 103.734 26.4522 102.565 26.4522C101.351 26.4522 100.422 25.5503 100.392 24.2574H105.817C105.832 24.1672 105.847 23.9868 105.847 23.8065C105.847 21.5515 104.603 20.0182 102.385 20.0182C100.572 20.0182 98.938 21.5666 98.938 23.8365C98.938 26.2869 100.632 27.7 102.565 27.7C104.244 27.7 105.398 26.6928 105.803 25.415L104.588 24.994Z" fill="white"/>
<path d="M109.023 23.2953C109.023 22.1979 109.593 21.311 110.702 21.311C111.961 21.311 112.38 22.1228 112.38 23.13V27.4745H113.789V22.8895C113.789 21.2809 112.935 20.0332 111.211 20.0332C110.372 20.0332 109.518 20.379 108.993 21.2809V20.2437H107.614V27.4745H109.023V23.2953Z" fill="white"/>
<path d="M117.891 17.9587H116.602V19.1313C116.602 19.7626 116.273 20.2437 115.493 20.2437H115.103V21.5215H116.482V25.4901C116.482 26.798 117.262 27.5496 118.491 27.5496C118.97 27.5496 119.33 27.4594 119.45 27.4143V26.2117C119.33 26.2418 119.075 26.2718 118.895 26.2718C118.161 26.2718 117.891 25.9411 117.891 25.2797V21.5215H119.45V20.2437H117.891V17.9587Z" fill="white"/>
<path d="M125.185 16.8162V27.4745H128.902C130.85 27.4745 132.184 26.2568 132.184 24.5731C132.184 23.3855 131.48 22.3032 130.266 22.0025C131.195 21.6568 131.855 20.845 131.855 19.7025C131.855 18.0188 130.67 16.8162 128.647 16.8162H125.185ZM126.654 21.4764V18.109H128.422C129.636 18.109 130.371 18.7705 130.371 19.7777C130.371 20.7698 129.666 21.4764 128.482 21.4764H126.654ZM126.654 26.1816V22.7391H128.752C130.041 22.7391 130.685 23.4607 130.685 24.4829C130.685 25.5202 129.876 26.1816 128.692 26.1816H126.654Z" fill="white"/>
<path d="M138.799 26.6026C138.799 26.9032 138.829 27.3091 138.859 27.4745H140.208C140.178 27.2189 140.133 26.7078 140.133 26.1365V20.2437H138.724V24.6032C138.724 25.7006 138.155 26.4522 137.016 26.4522C135.832 26.4522 135.382 25.5803 135.382 24.5882V20.2437H133.973V24.7986C133.973 26.4372 134.992 27.7 136.671 27.7C137.51 27.7 138.41 27.3542 138.799 26.6026Z" fill="white"/>
<path d="M143.814 27.4745V20.2437H142.42V27.4745H143.814ZM142.106 17.5077C142.106 18.0639 142.555 18.5149 143.11 18.5149C143.679 18.5149 144.129 18.0639 144.129 17.5077C144.129 16.9365 143.679 16.4855 143.11 16.4855C142.555 16.4855 142.106 16.9365 142.106 17.5077Z" fill="white"/>
<path d="M147.503 27.4745V16.5907H146.094V27.4745H147.503Z" fill="white"/>
<path d="M150.757 23.8365C150.757 22.3483 151.596 21.296 152.885 21.296C154.174 21.296 154.953 22.3182 154.953 23.8065C154.953 25.2947 154.159 26.4222 152.87 26.4222C151.521 26.4222 150.757 25.3248 150.757 23.8365ZM154.968 26.4973C154.968 26.9333 155.013 27.3091 155.043 27.4745H156.407C156.392 27.3542 156.332 26.828 156.332 26.1365V16.5907H154.938V21.2659C154.699 20.6796 154.009 20.0483 152.735 20.0483C150.697 20.0483 149.318 21.7921 149.318 23.8365C149.318 25.9862 150.622 27.6699 152.735 27.6699C153.859 27.6699 154.624 27.0686 154.968 26.3771V26.4973Z" fill="white"/>
<path d="M159.642 23.1149C159.702 22.1829 160.422 21.2659 161.606 21.2659C162.88 21.2659 163.554 22.0777 163.584 23.1149H159.642ZM163.794 24.994C163.524 25.8058 162.94 26.4522 161.771 26.4522C160.557 26.4522 159.627 25.5503 159.597 24.2574H165.023C165.038 24.1672 165.053 23.9868 165.053 23.8065C165.053 21.5515 163.809 20.0182 161.591 20.0182C159.777 20.0182 158.143 21.5666 158.143 23.8365C158.143 26.2869 159.837 27.7 161.771 27.7C163.449 27.7 164.603 26.6928 165.008 25.415L163.794 24.994Z" fill="white"/>
<path d="M170.821 20.1685C170.746 20.1535 170.552 20.1234 170.357 20.1234C169.622 20.1234 168.723 20.394 168.199 21.5064V20.2437H166.82V27.4745H168.229V23.8516C168.229 22.2581 169.023 21.6267 170.207 21.6267C170.402 21.6267 170.612 21.6417 170.821 21.6718V20.1685Z" fill="white"/>
</svg>
