<svg width="42" height="42" viewBox="0 0 42 42" fill="none" xmlns="http://www.w3.org/2000/svg">
<rect width="42" height="42" rx="12" fill="#E4F8FF"/>
<path d="M20.125 23.6248H21.875V25.3748H20.125V23.6248ZM20.125 16.6248H21.875V21.8748H20.125V16.6248ZM20.9913 12.2498C16.1612 12.2498 12.25 16.1698 12.25 20.9998C12.25 25.8298 16.1612 29.7498 20.9913 29.7498C25.83 29.7498 29.75 25.8298 29.75 20.9998C29.75 16.1698 25.83 12.2498 20.9913 12.2498ZM21 27.9998C17.1325 27.9998 14 24.8673 14 20.9998C14 17.1323 17.1325 13.9998 21 13.9998C24.8675 13.9998 28 17.1323 28 20.9998C28 24.8673 24.8675 27.9998 21 27.9998Z" fill="#4DB5DE"/>
</svg>
