<svg width="42" height="42" viewBox="0 0 42 42" fill="none" xmlns="http://www.w3.org/2000/svg">
<rect width="42" height="42" rx="12.6" fill="#EDF2F7"/>
<g clip-path="url(#clip0_383_9527)">
<path d="M21 15.7499V18.3749L24.5 14.8749L21 11.3749V13.9999C17.1325 13.9999 14 17.1324 14 20.9999C14 22.3737 14.4025 23.6512 15.085 24.7274L16.3625 23.4499C15.9688 22.7237 15.75 21.8837 15.75 20.9999C15.75 18.1037 18.1038 15.7499 21 15.7499ZM26.915 17.2724L25.6375 18.5499C26.0225 19.2849 26.25 20.1162 26.25 20.9999C26.25 23.8962 23.8963 26.2499 21 26.2499V23.6249L17.5 27.1249L21 30.6249V27.9999C24.8675 27.9999 28 24.8674 28 20.9999C28 19.6262 27.5975 18.3487 26.915 17.2724Z" fill="#4A5568"/>
</g>
<defs>
<clipPath id="clip0_383_9527">
<rect width="21" height="21" fill="white" transform="translate(10.5 10.5)"/>
</clipPath>
</defs>
</svg>
