<svg width="42" height="42" viewBox="0 0 42 42" fill="none" xmlns="http://www.w3.org/2000/svg">
<rect width="42" height="42" rx="12" fill="#ECE7F2"/>
<g clip-path="url(#clip0_383_7353)">
<path d="M26.53 14.2274C25.235 13.1687 23.6337 12.4687 21.875 12.2937V14.0612C23.1525 14.2187 24.3162 14.7262 25.2875 15.4787L26.53 14.2274ZM27.9387 20.1249H29.7062C29.5312 18.3662 28.8312 16.7649 27.7725 15.4699L26.5212 16.7124C27.2737 17.6837 27.7812 18.8474 27.9387 20.1249ZM26.5212 25.2874L27.7725 26.5387C28.8312 25.2437 29.5312 23.6337 29.7062 21.8837H27.9387C27.7812 23.1524 27.2737 24.3162 26.5212 25.2874ZM21.875 27.9387V29.7062C23.6337 29.5312 25.235 28.8312 26.53 27.7724L25.2787 26.5212C24.3162 27.2737 23.1525 27.7812 21.875 27.9387ZM21.875 20.9999V16.6249H20.125V20.9999H16.625L21 25.3749L25.375 20.9999H21.875ZM20.125 27.9387V29.7062C15.7062 29.2687 12.25 25.5412 12.25 20.9999C12.25 16.4587 15.7062 12.7312 20.125 12.2937V14.0612C16.6687 14.4899 14 17.4299 14 20.9999C14 24.5699 16.6687 27.5099 20.125 27.9387Z" fill="#623893"/>
</g>
<defs>
<clipPath id="clip0_383_7353">
<rect width="21" height="21" fill="white" transform="translate(10.5 10.5)"/>
</clipPath>
</defs>
</svg>
